<?xml version="1.0" encoding="utf-8"?>
<!-- Generator: Adobe Illustrator 27.5.0, SVG Export Plug-In . SVG Version: 6.00 Build 0)  -->
<svg version="1.1" xmlns="http://www.w3.org/2000/svg" xmlns:xlink="http://www.w3.org/1999/xlink" x="0px" y="0px"
	 viewBox="0 0 500 500" style="enable-background:new 0 0 500 500;" xml:space="preserve">
<g id="BACKGROUND">
	<rect style="fill:#FFFFFF;" width="500" height="500"/>
</g>
<g id="OBJECTS">
	<g>
		<g>
			<g>
				<g>
					<g>
						<g>
							<path style="fill:#FFFFFF;" d="M348.388,188.986h-35.529l-0.82-2.279h-21.887l0.82,2.279h-33.169l-22.14-61.326
								c-1.479-4.061-5.378-6.796-9.693-6.796c-1.165,0-2.329,0.213-3.484,0.618c-5.327,1.914-8.102,7.819-6.178,13.167
								l19.628,54.337h-85.744c-3.687,0-7.171,1.448-9.794,4.071c-2.623,2.623-4.072,6.107-4.072,9.804
								c0,7.039,5.277,12.873,12.154,13.754l18.565,73.874c1.742,6.968,7.981,11.84,15.172,11.84h134.146
								c7.181,0,13.42-4.861,15.182-11.84l18.555-73.864c3.049-0.375,5.864-1.752,8.082-3.96c2.633-2.633,4.082-6.117,4.082-9.804
								C362.264,195.204,356.035,188.986,348.388,188.986z M253.417,228.961c1.104,1.094,1.722,2.563,1.722,4.112v49.334
								c0,3.221-2.623,5.844-5.854,5.844c-3.221,0-5.834-2.623-5.834-5.844v-49.334c0-3.221,2.613-5.844,5.834-5.844
								C250.845,227.229,252.303,227.837,253.417,228.961z M203.395,287.764c-0.334,0.071-0.689,0.101-1.033,0.101
								c-2.826,0-5.246-2.026-5.753-4.801l-8.771-48.554c-0.567-3.17,1.55-6.219,4.73-6.796c0.314-0.061,0.648-0.091,1.033-0.091
								c2.775,0,5.246,2.066,5.743,4.801l8.771,48.554C208.682,284.149,206.565,287.197,203.395,287.764z M304.99,227.624
								c0.375,0,0.719,0.03,1.033,0.091c1.529,0.273,2.866,1.145,3.758,2.431c0.891,1.286,1.236,2.836,0.952,4.355l-8.771,48.564
								c-0.496,2.775-2.907,4.801-5.743,4.801c-0.344,0-0.699-0.03-1.043-0.101c-1.519-0.273-2.856-1.134-3.747-2.421
								c-0.891-1.286-1.236-2.836-0.962-4.365l8.771-48.554C299.733,229.69,302.204,227.624,304.99,227.624z"/>
						</g>
					</g>
					<g>
						<path style="fill:#534F70;" d="M348.388,186.707h-38.77l1.641,4.548h37.129c6.371,0,11.597,5.226,11.597,11.607
							c0,3.18-1.306,6.087-3.413,8.194c-2.097,2.086-4.993,3.403-8.184,3.403h-0.091l-18.96,75.485
							c-1.499,5.945-6.836,10.108-12.974,10.108H182.217c-6.128,0-11.475-4.163-12.964-10.108l-16.326-64.992l-2.643-10.493h-0.091
							c-6.381,0-11.587-5.226-11.587-11.597c0-3.19,1.307-6.097,3.403-8.194c2.097-2.107,5.003-3.413,8.184-3.413h88.985
							l-20.732-57.386c-1.489-4.142,0.668-8.761,4.811-10.25c0.901-0.314,1.813-0.476,2.714-0.476c3.281,0,6.371,2.036,7.556,5.287
							l22.677,62.824h38.011l-1.641-4.548h-33.169L237.8,126.89c-1.803-4.973-6.563-8.295-11.83-8.295
							c-1.428,0-2.846,0.243-4.234,0.739c-6.533,2.35-9.915,9.561-7.576,16.073l18.535,51.299h-82.503
							c-4.294,0-8.346,1.681-11.404,4.74c-3.059,3.059-4.74,7.11-4.74,11.414c0,7.677,5.398,14.129,12.589,15.749l1.874,7.454
							l16.326,64.982c1.995,7.981,9.146,13.562,17.38,13.562h134.146c8.224,0,15.374-5.581,17.38-13.551l18.21-72.446
							c2.937-0.658,5.641-2.147,7.839-4.345c3.059-3.059,4.74-7.11,4.74-11.404C364.533,193.948,357.291,186.707,348.388,186.707z
							 M294.77,290.003c0.486,0.091,0.972,0.132,1.448,0.132c3.849,0,7.282-2.765,7.981-6.664l8.771-48.564
							c0.8-4.385-2.147-8.629-6.533-9.429c-0.496-0.091-0.972-0.122-1.448-0.122c-3.839,0-7.282,2.765-7.991,6.664l-8.771,48.554
							C287.438,284.969,290.385,289.213,294.77,290.003z M304.99,229.903c0.243,0,0.436,0.02,0.608,0.051
							c0.952,0.172,1.762,0.699,2.309,1.489c0.547,0.78,0.76,1.732,0.587,2.654l-8.771,48.564c-0.294,1.671-1.803,2.927-3.504,2.927
							c-0.213,0-0.425-0.02-0.638-0.061c-1.935-0.344-3.221-2.208-2.876-4.142l8.781-48.554
							C301.779,231.159,303.288,229.903,304.99,229.903z M249.285,224.95c-4.456,0-8.113,3.656-8.113,8.123v49.334
							c0,4.477,3.656,8.123,8.113,8.123c4.477,0,8.123-3.646,8.123-8.123v-49.334c0-2.228-0.911-4.264-2.39-5.732
							C253.559,225.862,251.513,224.95,249.285,224.95z M245.73,282.407v-49.334c0-1.965,1.59-3.565,3.555-3.565
							c0.952,0,1.843,0.365,2.502,1.043c0.699,0.689,1.074,1.58,1.074,2.522v49.334c0,1.975-1.6,3.575-3.575,3.575
							C247.32,285.982,245.73,284.382,245.73,282.407z M193.601,225.355c-0.476,0-0.962,0.03-1.448,0.122
							c-4.396,0.8-7.333,5.044-6.553,9.429l8.771,48.564c0.709,3.899,4.153,6.664,7.991,6.664c0.476,0,0.962-0.04,1.438-0.132
							c4.406-0.79,7.343-5.034,6.553-9.429l-8.771-48.554C200.883,228.12,197.429,225.355,193.601,225.355z M202.99,285.526
							c-0.203,0.041-0.415,0.061-0.628,0.061c-1.702,0-3.211-1.266-3.514-2.937l-8.771-48.554c-0.344-1.924,0.952-3.788,2.887-4.142
							c0.203-0.03,0.395-0.051,0.638-0.051c1.691,0,3.201,1.256,3.504,2.927l8.771,48.554
							C206.221,283.318,204.934,285.182,202.99,285.526z M210.353,280.574l-8.771-48.554c-0.699-3.899-4.153-6.664-7.981-6.664
							c-0.476,0-0.962,0.03-1.448,0.122c-4.396,0.8-7.333,5.044-6.553,9.429l8.771,48.564c0.709,3.899,4.153,6.664,7.991,6.664
							c0.476,0,0.962-0.04,1.438-0.132C208.206,289.213,211.143,284.969,210.353,280.574z M202.99,285.526
							c-0.203,0.041-0.415,0.061-0.628,0.061c-1.702,0-3.211-1.266-3.514-2.937l-8.771-48.554c-0.344-1.924,0.952-3.788,2.887-4.142
							c0.203-0.03,0.395-0.051,0.638-0.051c1.691,0,3.201,1.256,3.504,2.927l8.771,48.554
							C206.221,283.318,204.934,285.182,202.99,285.526z M306.438,225.477c-0.496-0.091-0.972-0.122-1.448-0.122
							c-3.839,0-7.282,2.765-7.991,6.664l-8.771,48.554c-0.79,4.396,2.157,8.639,6.543,9.429c0.486,0.091,0.972,0.132,1.448,0.132
							c3.849,0,7.282-2.765,7.981-6.664l8.771-48.564C313.771,230.521,310.823,226.277,306.438,225.477z M296.219,285.587
							c-0.213,0-0.425-0.02-0.638-0.061c-1.935-0.344-3.221-2.208-2.876-4.142l8.781-48.554c0.294-1.671,1.803-2.927,3.504-2.927
							c0.243,0,0.436,0.02,0.608,0.051c0.952,0.172,1.762,0.699,2.309,1.489c0.547,0.78,0.76,1.732,0.587,2.654l-8.771,48.564
							C299.429,284.331,297.92,285.587,296.219,285.587z M255.018,227.34c-1.458-1.479-3.504-2.39-5.732-2.39
							c-4.456,0-8.113,3.656-8.113,8.123v49.334c0,4.477,3.656,8.123,8.113,8.123c4.477,0,8.123-3.646,8.123-8.123v-49.334
							C257.408,230.845,256.496,228.809,255.018,227.34z M245.73,282.407v-49.334c0-1.965,1.59-3.565,3.555-3.565
							c0.952,0,1.843,0.365,2.502,1.043c0.699,0.689,1.074,1.58,1.074,2.522v49.334c0,1.975-1.6,3.575-3.575,3.575
							C247.32,285.982,245.73,284.382,245.73,282.407z M306.438,225.477c-0.496-0.091-0.972-0.122-1.448-0.122
							c-3.839,0-7.282,2.765-7.991,6.664l-8.771,48.554c-0.79,4.396,2.157,8.639,6.543,9.429c0.486,0.091,0.972,0.132,1.448,0.132
							c3.849,0,7.282-2.765,7.981-6.664l8.771-48.564C313.771,230.521,310.823,226.277,306.438,225.477z M296.219,285.587
							c-0.213,0-0.425-0.02-0.638-0.061c-1.935-0.344-3.221-2.208-2.876-4.142l8.781-48.554c0.294-1.671,1.803-2.927,3.504-2.927
							c0.243,0,0.436,0.02,0.608,0.051c0.952,0.172,1.762,0.699,2.309,1.489c0.547,0.78,0.76,1.732,0.587,2.654l-8.771,48.564
							C299.429,284.331,297.92,285.587,296.219,285.587z M249.285,224.95c-4.456,0-8.113,3.656-8.113,8.123v49.334
							c0,4.477,3.656,8.123,8.113,8.123c4.477,0,8.123-3.646,8.123-8.123v-49.334c0-2.228-0.911-4.264-2.39-5.732
							C253.559,225.862,251.513,224.95,249.285,224.95z M245.73,282.407v-49.334c0-1.965,1.59-3.565,3.555-3.565
							c0.952,0,1.843,0.365,2.502,1.043c0.699,0.689,1.074,1.58,1.074,2.522v49.334c0,1.975-1.6,3.575-3.575,3.575
							C247.32,285.982,245.73,284.382,245.73,282.407z M201.582,232.02c-0.699-3.899-4.153-6.664-7.981-6.664
							c-0.476,0-0.962,0.03-1.448,0.122c-4.396,0.8-7.333,5.044-6.553,9.429l8.771,48.564c0.709,3.899,4.153,6.664,7.991,6.664
							c0.476,0,0.962-0.04,1.438-0.132c4.406-0.79,7.343-5.034,6.553-9.429L201.582,232.02z M202.99,285.526
							c-0.203,0.041-0.415,0.061-0.628,0.061c-1.702,0-3.211-1.266-3.514-2.937l-8.771-48.554c-0.344-1.924,0.952-3.788,2.887-4.142
							c0.203-0.03,0.395-0.051,0.638-0.051c1.691,0,3.201,1.256,3.504,2.927l8.771,48.554
							C206.221,283.318,204.934,285.182,202.99,285.526z"/>
					</g>
				</g>
				<rect x="270.848" y="186.707" style="fill:#534F70;" width="58.439" height="4.548"/>
			</g>
			<g>
				<g>
					<g>
						<g>
							<path style="fill:#534F70;" d="M252.626,204.926L252.626,204.926c-4.145,1.497-8.76-0.67-10.257-4.815l-23.918-66.236
								c-1.497-4.145,0.67-8.76,4.815-10.257l0,0c4.145-1.497,8.76,0.67,10.257,4.815l23.918,66.236
								C258.937,198.814,256.77,203.43,252.626,204.926z"/>
						</g>
					</g>
				</g>
				<g>
					<path style="fill:#AFBF55;" d="M359.989,202.861c0,3.186-1.308,6.087-3.413,8.191c-2.093,2.093-4.994,3.402-8.18,3.402H150.199
						c-6.382,0-11.593-5.222-11.593-11.593c0-3.186,1.308-6.098,3.402-8.191c2.105-2.105,5.006-3.413,8.191-3.413h198.196
						C354.767,191.256,359.989,196.478,359.989,202.861z"/>
				</g>
				<g>
					<path style="fill:#AFBF55;" d="M150.29,214.454l18.965,75.485c1.491,5.95,6.838,10.114,12.97,10.114H316.37
						c6.132,0,11.468-4.164,12.97-10.114l18.965-75.485H150.29z M203.807,290.007c-4.391,0.796-8.635-2.15-9.431-6.542
						l-8.771-48.556c-0.785-4.391,2.161-8.635,6.553-9.431c0.489-0.091,0.967-0.125,1.445-0.125c3.834,0,7.281,2.765,7.987,6.667
						l8.771,48.557C211.145,284.967,208.21,289.211,203.807,290.007z M257.415,282.408c0,4.471-3.652,8.123-8.123,8.123
						c-4.46,0-8.112-3.652-8.112-8.123v-49.33c0-4.471,3.652-8.123,8.112-8.123c2.23,0,4.266,0.91,5.734,2.389
						c1.479,1.468,2.389,3.504,2.389,5.734V282.408z M312.979,234.909l-8.771,48.556c-0.785,4.391-5.029,7.338-9.431,6.542
						c-4.391-0.796-7.338-5.04-6.542-9.431l8.771-48.557c0.705-3.902,4.153-6.667,7.987-6.667c0.478,0,0.956,0.034,1.445,0.125
						C310.829,226.274,313.776,230.518,312.979,234.909z"/>
				</g>
				<g>
					<polygon style="fill:#534F70;" points="348.302,214.454 347.484,217.715 151.276,218.366 150.293,214.454 					"/>
				</g>
			</g>
			<g>
				<path style="fill:#F46767;" d="M357.577,180.43c-0.048,0.096-0.101,0.202-0.16,0.292c-0.101,0.202-0.255,0.51-0.484,0.914
					c-0.059,0.09-0.112,0.197-0.181,0.308c-0.085,0.144-0.181,0.308-0.282,0.484c-0.112,0.197-0.234,0.388-0.356,0.579
					c-0.245,0.383-0.527,0.813-0.851,1.276c-6.096,8.861-25.797,30.322-75.989,35.859c-26.094-44.261-20.08-73.117-16.658-82.824
					c0.048-0.149,0.101-0.308,0.165-0.463c0.101-0.282,0.202-0.563,0.314-0.84c0.138-0.383,0.282-0.723,0.41-1.005
					c0.383-0.898,0.633-1.345,0.633-1.345c7.151-14.289,24.523-20.072,38.801-12.926c8.569,4.288,14.074,12.255,15.559,21.028
					c7.913-4.07,17.589-4.438,26.158-0.15C358.944,148.77,364.727,166.142,357.577,180.43z"/>
				<path style="fill:#534F70;" d="M279.272,222.419c-0.799,0-1.547-0.421-1.959-1.12c-26.388-44.76-20.569-74.17-16.843-84.737
					c0.044-0.143,0.12-0.363,0.207-0.574c0.073-0.21,0.186-0.521,0.309-0.827c0.129-0.362,0.297-0.759,0.445-1.089
					c0.399-0.937,0.691-1.463,0.723-1.521c3.679-7.356,10.086-12.911,17.992-15.544c7.902-2.634,16.358-2.031,23.81,1.699
					c7.98,3.993,13.864,11.275,16.161,19.826c8.22-3.289,17.575-2.942,25.557,1.052c15.384,7.699,21.636,26.48,13.937,41.864
					c-0.061,0.121-0.129,0.253-0.202,0.377c-0.118,0.234-0.277,0.544-0.498,0.934l-2.068-0.972l1.983,1.117l-0.384,0.66
					c-0.127,0.222-0.269,0.447-0.412,0.67c-0.26,0.407-0.56,0.865-0.905,1.358c-6.316,9.179-26.547,31.181-77.602,36.814
					C279.439,222.414,279.355,222.419,279.272,222.419z M290.028,119.946c-2.833,0-5.677,0.458-8.444,1.379
					c-6.752,2.249-12.226,6.994-15.412,13.361c-0.077,0.142-0.277,0.519-0.574,1.217c-0.127,0.282-0.248,0.566-0.362,0.884
					c-0.133,0.333-0.223,0.584-0.313,0.838c-0.079,0.197-0.11,0.297-0.14,0.39c-3.5,9.928-8.857,37.314,15.706,79.7
					c48.103-5.674,66.986-26.126,72.9-34.721c0.316-0.45,0.58-0.853,0.809-1.211c0.101-0.159,0.203-0.319,0.297-0.482l0.368-0.629
					c0.05-0.09,0.099-0.176,0.149-0.254c0.14-0.251,0.274-0.519,0.364-0.698c0.037-0.073,0.087-0.163,0.131-0.232l0.036-0.076
					c0,0,0,0,0.001-0.001c6.576-13.14,1.236-29.181-11.906-35.758c-7.563-3.784-16.571-3.733-24.098,0.139
					c-0.646,0.332-1.41,0.337-2.06,0.011c-0.649-0.324-1.103-0.939-1.224-1.654c-1.413-8.346-6.773-15.589-14.336-19.374
					C298.164,120.896,294.109,119.946,290.028,119.946z"/>
			</g>
			<g>
				<g>
					<path style="fill:#AFBF55;" d="M324.094,129.928c0,0-33.233-21.583,0-48.59C357.342,108.345,324.094,129.928,324.094,129.928z"
						/>
					<path style="fill:#534F70;" d="M324.095,131.635c-0.323,0-0.647-0.092-0.93-0.276c-0.601-0.391-14.744-9.736-15.515-24.209
						c-0.496-9.317,4.675-18.446,15.369-27.137c0.627-0.509,1.525-0.509,2.152,0c10.698,8.689,15.871,17.82,15.375,27.136
						c-0.771,14.473-14.92,23.82-15.522,24.21C324.742,131.543,324.418,131.635,324.095,131.635z M324.095,83.555
						c-9.063,7.675-13.448,15.541-13.038,23.395c0.561,10.728,10.003,18.616,13.038,20.885c3.036-2.268,12.482-10.156,13.043-20.885
						C337.548,99.096,333.162,91.23,324.095,83.555z"/>
				</g>
				<g>
					<line style="fill:#AFBF55;" x1="324.094" y1="81.338" x2="324.094" y2="129.928"/>
					<path style="fill:#534F70;" d="M324.095,131.635c-0.942,0-1.707-0.764-1.707-1.707V81.338c0-0.942,0.764-1.707,1.707-1.707
						c0.942,0,1.706,0.764,1.706,1.707v48.591C325.802,130.871,325.037,131.635,324.095,131.635z"/>
				</g>
				<g>
					<path style="fill:#534F70;" d="M324.097,105.874c-0.494,0-0.964-0.214-1.289-0.588l-10.309-11.872
						c-0.618-0.711-0.542-1.79,0.17-2.408c0.712-0.618,1.789-0.542,2.408,0.17l9.02,10.388l9.02-10.388
						c0.618-0.712,1.693-0.788,2.408-0.17c0.712,0.618,0.788,1.697,0.17,2.408l-10.309,11.872
						C325.062,105.66,324.592,105.874,324.097,105.874z"/>
				</g>
				<g>
					<path style="fill:#534F70;" d="M324.095,122.316c-0.452,0-0.885-0.179-1.207-0.5l-14.77-14.764
						c-0.667-0.666-0.667-1.747,0-2.413c0.667-0.667,1.746-0.667,2.413,0l13.486,13.481l13.483-15.262
						c0.622-0.708,1.702-0.774,2.409-0.149c0.707,0.624,0.773,1.702,0.149,2.409l-14.684,16.622
						c-0.311,0.353-0.756,0.561-1.226,0.576C324.131,122.316,324.113,122.316,324.095,122.316z"/>
				</g>
			</g>
		</g>
	</g>
	<g>
		<text transform="matrix(1 0 0 1 122.1831 361.1523)" style="fill:#AFBF55; font-family:'Riffic-Bold'; font-size:58.0539px;">MARKET</text>
		
			<text transform="matrix(1 0 0 1 155.9277 403.5117)" style="fill:#F46767; font-family:'JosefinSans-Regular'; font-size:37.204px;">DELIVERY</text>
	</g>
</g>
</svg>
